<?xml version="1.0" standalone="no"?>
<!DOCTYPE svg PUBLIC "-//W3C//DTD SVG 20010904//EN"
 "http://www.w3.org/TR/2001/REC-SVG-20010904/DTD/svg10.dtd">
<svg version="1.0" xmlns="http://www.w3.org/2000/svg"
 width="512.000000pt" height="512.000000pt" viewBox="0 0 512.000000 512.000000"
 preserveAspectRatio="xMidYMid meet">

<g transform="translate(0.000000,512.000000) scale(0.100000,-0.100000)"
fill="#000000" stroke="none">
<path d="M558 5110 c-209 -35 -390 -165 -477 -341 -53 -107 -70 -170 -78 -289
-10 -155 26 -328 103 -499 l34 -73 37 7 c77 14 261 78 358 125 132 63 255 153
358 259 130 135 217 278 271 446 26 80 59 225 53 231 -9 10 -161 74 -217 92
-139 45 -321 62 -442 42z"/>
<path d="M1440 4768 c-52 -202 -146 -399 -260 -544 l-48 -61 1540 -1539 1539
-1539 34 40 c83 98 166 267 210 429 34 129 40 184 21 226 -9 23 -538 558
-1513 1533 -824 823 -1501 1497 -1505 1497 -4 0 -12 -19 -18 -42z"/>
<path d="M900 3953 c-112 -88 -368 -216 -517 -259 -32 -9 -62 -20 -68 -25 -13
-13 2978 -3005 3023 -3024 29 -13 42 -12 115 5 187 45 353 113 494 205 l86 57
-1539 1539 c-846 846 -1541 1539 -1544 1538 -3 0 -25 -16 -50 -36z"/>
<path d="M4592 1191 c-52 -106 -155 -255 -236 -339 -112 -118 -282 -240 -447
-319 -54 -26 -99 -51 -99 -54 0 -3 260 -99 578 -214 317 -115 612 -221 654
-237 l77 -28 -33 93 c-18 50 -122 340 -231 642 -109 303 -201 553 -204 557 -3
4 -30 -42 -59 -101z"/>
</g>
</svg>
