<?xml version="1.0" standalone="no"?>
<!DOCTYPE svg PUBLIC "-//W3C//DTD SVG 20010904//EN"
 "http://www.w3.org/TR/2001/REC-SVG-20010904/DTD/svg10.dtd">
<svg version="1.0" xmlns="http://www.w3.org/2000/svg"
 width="512.000000pt" height="512.000000pt" viewBox="0 0 512.000000 512.000000"
 preserveAspectRatio="xMidYMid meet">

<g transform="translate(0.000000,512.000000) scale(0.100000,-0.100000)"
fill="#000000" stroke="none">
<path d="M2265 5108 c-29 -17 -44 -40 -45 -66 0 -19 36 -177 56 -244 5 -17
-25 -18 -543 -18 -301 0 -574 -4 -606 -10 -165 -27 -299 -150 -343 -315 -8
-29 -14 -103 -14 -178 0 -123 1 -129 25 -152 20 -21 34 -25 84 -25 33 0 62 -4
65 -8 3 -5 100 -842 216 -1860 187 -1651 210 -1869 210 -2011 0 -88 3 -167 6
-176 18 -46 -8 -45 1184 -45 1192 0 1166 -1 1184 45 3 9 6 88 6 176 0 142 23
360 210 2011 116 1018 213 1855 216 1860 3 4 32 8 65 8 50 0 64 4 84 25 24 23
25 29 25 152 0 75 -6 149 -14 178 -44 165 -178 288 -343 315 -32 6 -305 10
-606 10 -518 0 -548 1 -543 18 18 62 56 224 56 242 0 12 -13 35 -29 51 l-29
29 -279 0 c-190 -1 -284 -4 -298 -12z m435 -170 c0 -7 -9 -44 -18 -83 l-18
-70 -104 0 -104 0 -18 70 c-9 39 -18 76 -18 83 0 9 35 12 140 12 105 0 140 -3
140 -12z m1317 -353 c98 -41 149 -118 160 -239 l6 -76 -1623 0 -1623 0 6 75
c10 115 54 187 139 229 l52 26 1423 0 c1256 0 1428 -2 1460 -15z m-1199 -747
l2 -258 170 0 170 0 0 -170 0 -170 255 0 255 0 0 430 0 430 166 0 165 0 -6
-42 c-3 -24 -93 -817 -200 -1763 -107 -946 -197 -1735 -200 -1752 l-6 -33
-1029 0 -1029 0 -6 33 c-3 17 -93 806 -200 1752 -107 946 -197 1739 -200 1763
l-6 42 848 -2 848 -3 3 -257z m672 -83 l0 -335 -80 0 -80 0 0 335 0 335 80 0
80 0 0 -335z m90 -3500 l0 -85 -1020 0 -1020 0 0 85 0 85 1020 0 1020 0 0 -85z"/>
<path d="M1670 2977 c-51 -26 -50 -7 -50 -850 l0 -789 29 -29 29 -29 200 0
c197 0 199 0 226 25 l26 24 0 804 0 804 -26 24 c-25 23 -30 24 -217 27 -142 2
-199 -1 -217 -11z m290 -847 l0 -680 -80 0 -80 0 0 680 0 680 80 0 80 0 0
-680z"/>
<path d="M2353 2975 c-23 -10 -35 -24 -43 -52 -8 -27 -10 -265 -8 -816 l3
-779 28 -24 c28 -24 31 -24 227 -24 196 0 199 0 227 24 l28 24 3 779 c2 551 0
789 -8 816 -17 59 -46 67 -252 67 -125 -1 -182 -5 -205 -15z m287 -845 l0
-680 -80 0 -80 0 0 680 0 680 80 0 80 0 0 -680z"/>
<path d="M3050 2983 c-8 -3 -25 -15 -37 -26 l-23 -20 0 -804 0 -804 26 -24
c27 -25 29 -25 226 -25 l200 0 29 29 29 30 -2 800 -3 800 -23 23 c-22 22 -29
23 -215 25 -105 1 -199 -1 -207 -4z m270 -853 l0 -680 -80 0 -80 0 0 680 0
680 80 0 80 0 0 -680z"/>
</g>
</svg>
